<?xml version="1.0" encoding="utf-8"?>
<!-- Uploaded to: SVG Repo, www.svgrepo.com, Generator: SVG Repo Mixer Tools -->
<svg width="800px" height="800px" viewBox="0 0 20 20" xmlns="http://www.w3.org/2000/svg">
  <g id="taxi-2" transform="translate(-2 -2)">
    <path id="secondary" fill="#2ca9bc" d="M3,18V14.59a1.05,1.05,0,0,1,.13-.49L4.89,11H19.11l1.76,3.1a1.05,1.05,0,0,1,.13.49V18a1,1,0,0,1-1,1H4A1,1,0,0,1,3,18Z"/>
    <line id="primary-upstroke" x2="0.1" transform="translate(16.45 15)" fill="none" stroke="#000000" stroke-linecap="round" stroke-linejoin="round" stroke-width="2.5"/>
    <line id="primary-upstroke-2" data-name="primary-upstroke" x2="0.1" transform="translate(7.45 15)" fill="none" stroke="#000000" stroke-linecap="round" stroke-linejoin="round" stroke-width="2.5"/>
    <path id="primary" d="M18,21H17a1,1,0,0,1-1-1V19h3v1A1,1,0,0,1,18,21ZM6,21H7a1,1,0,0,0,1-1V19H5v1A1,1,0,0,0,6,21ZM14,4a1,1,0,0,0-1-1H11a1,1,0,0,0-1,1V5h4Zm2.4,1H7.6a2,2,0,0,0-2,1.67L4.89,11H19.11l-.74-4.33A2,2,0,0,0,16.4,5ZM4,19H20a1,1,0,0,0,1-1V14.59a1.05,1.05,0,0,0-.13-.49L19.11,11H4.89L3.13,14.1a1.05,1.05,0,0,0-.13.49V18A1,1,0,0,0,4,19Z" fill="none" stroke="#000000" stroke-linecap="round" stroke-linejoin="round" stroke-width="2"/>
  </g>
</svg>